<svg xmlns="http://www.w3.org/2000/svg" version="1.1" xmlns:xlink="http://www.w3.org/1999/xlink" xmlns:svgjs="http://svgjs.dev/svgjs" width="1440" height="560" preserveAspectRatio="none" viewBox="0 0 1440 560">
    <g mask="url(&quot;#SvgjsMask1450&quot;)" fill="none">
        <rect width="1440" height="560" x="0" y="0" fill="rgba(5, 0, 10, 1)"></rect>
        <path d="M1440 0L1046.57 0L1440 11.72z" fill="rgba(255, 255, 255, .1)"></path>
        <path d="M1046.57 0L1440 11.72L1440 225.6L723.0899999999999 0z" fill="rgba(255, 255, 255, .075)"></path>
        <path d="M723.0899999999999 0L1440 225.6L1440 411.78L458.0499999999999 0z" fill="rgba(255, 255, 255, .05)"></path>
        <path d="M458.04999999999995 0L1440 411.78L1440 432.45L197.51999999999998 0z" fill="rgba(255, 255, 255, .025)"></path>
        <path d="M0 560L534.71 560L0 366.31z" fill="rgba(0, 0, 0, .1)"></path>
        <path d="M0 366.31L534.71 560L1009.8700000000001 560L0 355.83z" fill="rgba(0, 0, 0, .075)"></path>
        <path d="M0 355.83000000000004L1009.8700000000001 560L1101.41 560L0 173.30000000000004z" fill="rgba(0, 0, 0, .05)"></path>
        <path d="M0 173.3L1101.41 560L1282.75 560L0 125.58000000000001z" fill="rgba(0, 0, 0, .025)"></path>
    </g>
    <defs>
        <mask id="SvgjsMask1450">
            <rect width="1440" height="560" fill="#ffffff"></rect>
        </mask>
    </defs>
</svg>