<svg xmlns="http://www.w3.org/2000/svg" version="1.1" xmlns:xlink="http://www.w3.org/1999/xlink" xmlns:svgjs="http://svgjs.dev/svgjs" width="1440" height="560" preserveAspectRatio="none" viewBox="0 0 1440 560"><g mask="url(&quot;#SvgjsMask1026&quot;)" fill="none"><rect width="1440" height="560" x="0" y="0" fill="rgba(6, 3, 23, 1)"></rect><path d="M1440 0L824.31 0L1440 152.71z" fill="rgba(255, 255, 255, .1)"></path><path d="M824.31 0L1440 152.71L1440 330.29L380.7099999999999 0z" fill="rgba(255, 255, 255, .075)"></path><path d="M380.71000000000004 0L1440 330.29L1440 439.21000000000004L370.08000000000004 0z" fill="rgba(255, 255, 255, .05)"></path><path d="M370.0799999999999 0L1440 439.21000000000004L1440 480.28000000000003L185.62999999999994 0z" fill="rgba(255, 255, 255, .025)"></path><path d="M0 560L410.16 560L0 365.39z" fill="rgba(0, 0, 0, .1)"></path><path d="M0 365.39L410.16 560L553.22 560L0 279.48z" fill="rgba(0, 0, 0, .075)"></path><path d="M0 279.48L553.22 560L839.81 560L0 275.90000000000003z" fill="rgba(0, 0, 0, .05)"></path><path d="M0 275.90000000000003L839.81 560L1264.1299999999999 560L0 111.19000000000003z" fill="rgba(0, 0, 0, .025)"></path></g><defs><mask id="SvgjsMask1026"><rect width="1440" height="560" fill="#ffffff"></rect></mask></defs></svg>