<svg xmlns="http://www.w3.org/2000/svg" version="1.1" xmlns:xlink="http://www.w3.org/1999/xlink" xmlns:svgjs="http://svgjs.dev/svgjs" width="1440" height="560" preserveAspectRatio="none" viewBox="0 0 1440 560"><g mask="url(&quot;#SvgjsMask1067&quot;)" fill="none"><rect width="1440" height="560" x="0" y="0" fill="url(&quot;#SvgjsRadialGradient1068&quot;)"></rect><path d="M1440 0L1027.48 0L1440 108.59z" fill="rgba(255, 255, 255, .1)"></path><path d="M1027.48 0L1440 108.59L1440 141.04000000000002L559.73 0z" fill="rgba(255, 255, 255, .075)"></path><path d="M559.73 0L1440 141.04000000000002L1440 211.62L352.11 0z" fill="rgba(255, 255, 255, .05)"></path><path d="M352.1100000000001 0L1440 211.62L1440 308.56L157.99000000000012 0z" fill="rgba(255, 255, 255, .025)"></path><path d="M0 560L54.26 560L0 336.90999999999997z" fill="rgba(0, 0, 0, .1)"></path><path d="M0 336.90999999999997L54.26 560L337.27 560L0 193.33999999999997z" fill="rgba(0, 0, 0, .075)"></path><path d="M0 193.34000000000003L337.27 560L515.36 560L0 107.54000000000003z" fill="rgba(0, 0, 0, .05)"></path><path d="M0 107.54000000000002L515.36 560L539.59 560L0 41.72000000000003z" fill="rgba(0, 0, 0, .025)"></path></g><defs><mask id="SvgjsMask1067"><rect width="1440" height="560" fill="#ffffff"></rect></mask><radialGradient cx="50%" cy="0%" r="912.14" gradientUnits="userSpaceOnUse" id="SvgjsRadialGradient1068"><stop stop-color="rgba(242, 242, 242, 1)" offset="0"></stop><stop stop-color="rgba(242, 242, 242, 1)" offset="0.47"></stop><stop stop-color="rgba(242, 242, 242, 1)" offset="1"></stop></radialGradient></defs></svg>