<svg xmlns="http://www.w3.org/2000/svg" xmlns:xlink="http://www.w3.org/1999/xlink" width="3000" zoomAndPan="magnify" viewBox="0 0 2250 1049.999947" height="1400" preserveAspectRatio="xMidYMid meet" version="1.0"><defs><g/></defs><g fill="#fef6e6" fill-opacity="1"><g transform="translate(0.0518578, 642.75553)"><g><path d="M 69.453125 -41.234375 L 156.640625 -41.234375 L 156.640625 0 L 19.765625 0 L 19.765625 -246.046875 L 69.453125 -246.046875 Z M 69.453125 -41.234375 "/></g></g></g><g fill="#fef6e6" fill-opacity="1"><g transform="translate(165.644255, 642.75553)"><g><path d="M 107.296875 -16.734375 C 97.390625 -3.328125 84.097656 3.375 67.421875 3.375 C 50.640625 3.375 37.910156 -2.394531 29.234375 -13.9375 C 20.554688 -25.488281 16.21875 -42.300781 16.21875 -64.375 L 16.21875 -182.84375 L 64.046875 -182.84375 L 64.046875 -63.203125 C 64.265625 -45.398438 70.175781 -36.5 81.78125 -36.5 C 92.707031 -36.5 100.597656 -41.226562 105.453125 -50.6875 L 105.453125 -182.84375 L 153.609375 -182.84375 L 153.609375 0 L 108.65625 0 Z M 107.296875 -16.734375 "/></g></g></g><g fill="#fef6e6" fill-opacity="1"><g transform="translate(335.967862, 642.75553)"><g><path d="M 78.078125 -70.46875 L 65.234375 -56.109375 L 65.234375 0 L 17.40625 0 L 17.40625 -259.5625 L 65.234375 -259.5625 L 65.234375 -119.296875 L 71.140625 -128.09375 L 104.265625 -182.84375 L 161.203125 -182.84375 L 108.15625 -107.46875 L 166.28125 0 L 111.53125 0 Z M 78.078125 -70.46875 "/></g></g></g><g fill="#fef6e6" fill-opacity="1"><g transform="translate(501.560259, 642.75553)"><g><path d="M 104.265625 0 C 102.910156 -2.8125 101.554688 -7.539062 100.203125 -14.1875 C 91.640625 -2.476562 80.035156 3.375 65.390625 3.375 C 50.078125 3.375 37.378906 -1.691406 27.296875 -11.828125 C 17.210938 -21.960938 12.171875 -35.085938 12.171875 -51.203125 C 12.171875 -70.347656 18.28125 -85.160156 30.5 -95.640625 C 42.726562 -106.117188 60.332031 -111.472656 83.3125 -111.703125 L 97.84375 -111.703125 L 97.84375 -126.40625 C 97.84375 -134.625 96.429688 -140.421875 93.609375 -143.796875 C 90.796875 -147.179688 86.6875 -148.875 81.28125 -148.875 C 69.34375 -148.875 63.375 -141.890625 63.375 -127.921875 L 15.546875 -127.921875 C 15.546875 -144.816406 21.878906 -158.753906 34.546875 -169.734375 C 47.222656 -180.722656 63.253906 -186.21875 82.640625 -186.21875 C 102.691406 -186.21875 118.207031 -181.003906 129.1875 -170.578125 C 140.164062 -160.160156 145.65625 -145.265625 145.65625 -125.890625 L 145.65625 -39.875 C 145.882812 -24.101562 148.140625 -11.769531 152.421875 -2.875 L 152.421875 0 Z M 76.046875 -34.140625 C 81.335938 -34.140625 85.84375 -35.207031 89.5625 -37.34375 C 93.28125 -39.488281 96.039062 -42.023438 97.84375 -44.953125 L 97.84375 -82.96875 L 86.34375 -82.96875 C 78.238281 -82.96875 71.847656 -80.375 67.171875 -75.1875 C 62.492188 -70.007812 60.15625 -63.082031 60.15625 -54.40625 C 60.15625 -40.894531 65.453125 -34.140625 76.046875 -34.140625 Z M 76.046875 -34.140625 "/></g></g></g><g fill="#fef6e6" fill-opacity="1"><g transform="translate(664.449106, 642.75553)"><g><path d="M 98.34375 -49 C 98.34375 -53.0625 96.398438 -56.804688 92.515625 -60.234375 C 88.628906 -63.671875 79.984375 -68.320312 66.578125 -74.1875 C 46.859375 -82.1875 33.3125 -90.460938 25.9375 -99.015625 C 18.5625 -107.578125 14.875 -118.226562 14.875 -130.96875 C 14.875 -146.957031 20.644531 -160.160156 32.1875 -170.578125 C 43.738281 -181.003906 59.035156 -186.21875 78.078125 -186.21875 C 98.128906 -186.21875 114.179688 -181.035156 126.234375 -170.671875 C 138.285156 -160.304688 144.3125 -146.394531 144.3125 -128.9375 L 96.484375 -128.9375 C 96.484375 -143.800781 90.289062 -151.234375 77.90625 -151.234375 C 72.832031 -151.234375 68.660156 -149.65625 65.390625 -146.5 C 62.128906 -143.351562 60.5 -138.960938 60.5 -133.328125 C 60.5 -129.273438 62.300781 -125.695312 65.90625 -122.59375 C 69.507812 -119.5 78.015625 -115.078125 91.421875 -109.328125 C 110.910156 -102.117188 124.679688 -94.09375 132.734375 -85.25 C 140.785156 -76.40625 144.8125 -64.941406 144.8125 -50.859375 C 144.8125 -34.523438 138.671875 -21.398438 126.390625 -11.484375 C 114.117188 -1.578125 98.015625 3.375 78.078125 3.375 C 64.671875 3.375 52.835938 0.757812 42.578125 -4.46875 C 32.328125 -9.707031 24.300781 -17.003906 18.5 -26.359375 C 12.695312 -35.710938 9.796875 -45.796875 9.796875 -56.609375 L 55.25 -56.609375 C 55.476562 -48.273438 57.421875 -42.019531 61.078125 -37.84375 C 64.742188 -33.675781 70.742188 -31.59375 79.078125 -31.59375 C 91.921875 -31.59375 98.34375 -37.394531 98.34375 -49 Z M 98.34375 -49 "/></g></g></g><g fill="#fef6e6" fill-opacity="1"><g transform="translate(821.592937, 642.75553)"><g/></g></g><g fill="#fef6e6" fill-opacity="1"><g transform="translate(901.347642, 642.75553)"><g><path d="M 89.046875 -94.96875 L 69.453125 -70.296875 L 69.453125 0 L 19.765625 0 L 19.765625 -246.046875 L 69.453125 -246.046875 L 69.453125 -138.734375 L 85.171875 -165.265625 L 130.96875 -246.046875 L 191.796875 -246.046875 L 121.328125 -137.890625 L 192.984375 0 L 134 0 Z M 89.046875 -94.96875 "/></g></g></g><g fill="#fef6e6" fill-opacity="1"><g transform="translate(1092.792766, 642.75553)"><g><path d="M 67.59375 0 L 19.609375 0 L 19.609375 -182.84375 L 67.59375 -182.84375 Z M 17.40625 -230.15625 C 17.40625 -237.59375 19.769531 -243.675781 24.5 -248.40625 C 29.226562 -253.132812 35.535156 -255.5 43.421875 -255.5 C 51.304688 -255.5 57.613281 -253.132812 62.34375 -248.40625 C 67.082031 -243.675781 69.453125 -237.59375 69.453125 -230.15625 C 69.453125 -222.832031 67.113281 -216.75 62.4375 -211.90625 C 57.757812 -207.0625 51.421875 -204.640625 43.421875 -204.640625 C 35.429688 -204.640625 29.097656 -207.0625 24.421875 -211.90625 C 19.742188 -216.75 17.40625 -222.832031 17.40625 -230.15625 Z M 17.40625 -230.15625 "/></g></g></g><g fill="#fef6e6" fill-opacity="1"><g transform="translate(1179.982282, 642.75553)"><g><path d="M 107.640625 -136.703125 L 91.765625 -138.0625 C 78.691406 -138.0625 69.847656 -132.316406 65.234375 -120.828125 L 65.234375 0 L 17.234375 0 L 17.234375 -182.84375 L 62.359375 -182.84375 L 63.703125 -163.0625 C 71.253906 -178.5 81.675781 -186.21875 94.96875 -186.21875 C 100.375 -186.21875 104.769531 -185.484375 108.15625 -184.015625 Z M 107.640625 -136.703125 "/></g></g></g><g fill="#fef6e6" fill-opacity="1"><g transform="translate(1294.71417, 642.75553)"><g><path d="M 83.484375 -36.328125 C 97.335938 -36.328125 104.375 -45.34375 104.59375 -63.375 L 149.546875 -63.375 C 149.328125 -43.425781 143.1875 -27.3125 131.125 -15.03125 C 119.070312 -2.757812 103.523438 3.375 84.484375 3.375 C 60.941406 3.375 42.972656 -3.945312 30.578125 -18.59375 C 18.191406 -33.238281 11.882812 -54.8125 11.65625 -83.3125 L 11.65625 -97.84375 C 11.65625 -126.570312 17.765625 -148.484375 29.984375 -163.578125 C 42.210938 -178.671875 60.269531 -186.21875 84.15625 -186.21875 C 104.320312 -186.21875 120.207031 -179.992188 131.8125 -167.546875 C 143.414062 -155.097656 149.328125 -137.441406 149.546875 -114.578125 L 104.59375 -114.578125 C 104.488281 -124.828125 102.800781 -132.710938 99.53125 -138.234375 C 96.257812 -143.753906 90.851562 -146.515625 83.3125 -146.515625 C 74.96875 -146.515625 68.992188 -143.554688 65.390625 -137.640625 C 61.785156 -131.722656 59.875 -120.257812 59.65625 -103.25 L 59.65625 -84.65625 C 59.65625 -69.789062 60.382812 -59.398438 61.84375 -53.484375 C 63.3125 -47.566406 65.734375 -43.226562 69.109375 -40.46875 C 72.492188 -37.707031 77.285156 -36.328125 83.484375 -36.328125 Z M 83.484375 -36.328125 "/></g></g></g><g fill="#fef6e6" fill-opacity="1"><g transform="translate(1453.885662, 642.75553)"><g><path d="M 64.046875 -166.78125 C 74.410156 -179.738281 87.140625 -186.21875 102.234375 -186.21875 C 118.910156 -186.21875 131.582031 -180.359375 140.25 -168.640625 C 148.925781 -156.929688 153.320312 -139.472656 153.4375 -116.265625 L 153.4375 0 L 105.453125 0 L 105.453125 -115.75 C 105.453125 -126.457031 103.785156 -134.203125 100.453125 -138.984375 C 97.128906 -143.773438 91.753906 -146.171875 84.328125 -146.171875 C 75.648438 -146.171875 68.890625 -142.171875 64.046875 -134.171875 L 64.046875 0 L 16.21875 0 L 16.21875 -259.5625 L 64.046875 -259.5625 Z M 64.046875 -166.78125 "/></g></g></g><g fill="#fef6e6" fill-opacity="1"><g transform="translate(1624.20927, 642.75553)"><g><path d="M 160.03125 -85.5 C 160.03125 -55.875 155.296875 -33.65625 145.828125 -18.84375 C 136.367188 -4.03125 121.5 3.375 101.21875 3.375 C 85.332031 3.375 72.601562 -3.773438 63.03125 -18.078125 L 61.515625 0 L 17.40625 0 L 17.40625 -259.5625 L 65.234375 -259.5625 L 65.234375 -167.96875 C 74.242188 -180.132812 86.128906 -186.21875 100.890625 -186.21875 C 121.160156 -186.21875 136.023438 -178.863281 145.484375 -164.15625 C 154.953125 -149.457031 159.800781 -127.914062 160.03125 -99.53125 Z M 112.203125 -97.5 C 112.203125 -116.769531 110.34375 -129.695312 106.625 -136.28125 C 102.90625 -142.875 96.429688 -146.171875 87.203125 -146.171875 C 77.171875 -146.171875 69.847656 -141.609375 65.234375 -132.484375 L 65.234375 -49.171875 C 69.515625 -40.609375 76.945312 -36.328125 87.53125 -36.328125 C 96.65625 -36.328125 102.988281 -39.3125 106.53125 -45.28125 C 110.082031 -51.257812 111.972656 -62.863281 112.203125 -80.09375 Z M 112.203125 -97.5 "/></g></g></g><g fill="#fef6e6" fill-opacity="1"><g transform="translate(1795.546733, 642.75553)"><g><path d="M 91.25 3.375 C 66.6875 3.375 47.535156 -3.945312 33.796875 -18.59375 C 20.054688 -33.238281 13.1875 -54.191406 13.1875 -81.453125 L 13.1875 -95.984375 C 13.1875 -124.828125 19.492188 -147.078125 32.109375 -162.734375 C 44.722656 -178.390625 62.800781 -186.21875 86.34375 -186.21875 C 109.332031 -186.21875 126.628906 -178.863281 138.234375 -164.15625 C 149.835938 -149.457031 155.75 -127.691406 155.96875 -98.859375 L 155.96875 -75.359375 L 60.828125 -75.359375 C 61.503906 -61.847656 64.488281 -51.960938 69.78125 -45.703125 C 75.082031 -39.453125 83.253906 -36.328125 94.296875 -36.328125 C 110.285156 -36.328125 123.632812 -41.789062 134.34375 -52.71875 L 153.09375 -23.828125 C 147.238281 -15.710938 138.734375 -9.148438 127.578125 -4.140625 C 116.429688 0.867188 104.320312 3.375 91.25 3.375 Z M 61.171875 -108.828125 L 109 -108.828125 L 109 -113.21875 C 108.769531 -124.144531 106.960938 -132.425781 103.578125 -138.0625 C 100.203125 -143.695312 94.34375 -146.515625 86 -146.515625 C 77.664062 -146.515625 71.613281 -143.523438 67.84375 -137.546875 C 64.070312 -131.578125 61.847656 -122.003906 61.171875 -108.828125 Z M 61.171875 -108.828125 "/></g></g></g><g fill="#fef6e6" fill-opacity="1"><g transform="translate(1961.139079, 642.75553)"><g><path d="M 107.640625 -136.703125 L 91.765625 -138.0625 C 78.691406 -138.0625 69.847656 -132.316406 65.234375 -120.828125 L 65.234375 0 L 17.234375 0 L 17.234375 -182.84375 L 62.359375 -182.84375 L 63.703125 -163.0625 C 71.253906 -178.5 81.675781 -186.21875 94.96875 -186.21875 C 100.375 -186.21875 104.769531 -185.484375 108.15625 -184.015625 Z M 107.640625 -136.703125 "/></g></g></g><g fill="#fef6e6" fill-opacity="1"><g transform="translate(2075.871068, 642.75553)"><g><path d="M 11.65625 -97 C 11.65625 -126.96875 17.0625 -149.328125 27.875 -164.078125 C 38.695312 -178.835938 53.851562 -186.21875 73.34375 -186.21875 C 89.894531 -186.21875 102.679688 -179.6875 111.703125 -166.625 L 113.5625 -182.84375 L 156.640625 -182.84375 L 156.640625 0 C 156.640625 23.320312 150.101562 41.148438 137.03125 53.484375 C 123.96875 65.816406 105.21875 71.984375 80.78125 71.984375 C 70.75 71.984375 60.210938 69.984375 49.171875 65.984375 C 38.128906 61.984375 29.90625 56.882812 24.5 50.6875 L 40.5625 17.578125 C 45.0625 22.304688 50.914062 26.160156 58.125 29.140625 C 65.332031 32.128906 72.148438 33.625 78.578125 33.625 C 89.273438 33.625 96.960938 31.0625 101.640625 25.9375 C 106.316406 20.8125 108.710938 12.5625 108.828125 1.1875 L 108.828125 -14.53125 C 99.703125 -2.59375 87.816406 3.375 73.171875 3.375 C 53.679688 3.375 38.613281 -4.195312 27.96875 -19.34375 C 17.320312 -34.5 11.882812 -55.878906 11.65625 -83.484375 Z M 59.484375 -85 C 59.484375 -68.101562 61.675781 -55.796875 66.0625 -48.078125 C 70.457031 -40.359375 77.445312 -36.5 87.03125 -36.5 C 96.832031 -36.5 104.097656 -40.046875 108.828125 -47.140625 L 108.828125 -134.515625 C 103.867188 -142.285156 96.710938 -146.171875 87.359375 -146.171875 C 77.898438 -146.171875 70.890625 -142.28125 66.328125 -134.5 C 61.765625 -126.726562 59.484375 -114.226562 59.484375 -97 Z M 59.484375 -85 "/></g></g></g></svg>